<?xml version="1.0" standalone="no"?>
<!DOCTYPE svg PUBLIC "-//W3C//DTD SVG 20010904//EN"
 "http://www.w3.org/TR/2001/REC-SVG-20010904/DTD/svg10.dtd">
<svg version="1.0" xmlns="http://www.w3.org/2000/svg"
 width="259.000000pt" height="259.000000pt" viewBox="0 0 259.000000 259.000000"
 preserveAspectRatio="xMidYMid meet">
<metadata>
Created by potrace 1.11, written by Peter Selinger 2001-2013
</metadata>
<g transform="translate(0.000000,259.000000) scale(0.100000,-0.100000)"
fill="#000000" stroke="none">
<path d="M1167 2584 c-1 -1 -22 -4 -47 -8 -242 -31 -499 -148 -670 -305 l-55
-50 190 0 c105 0 228 0 274 -1 l84 0 -270 -270 c-149 -148 -274 -270 -277
-270 -3 0 -5 109 -5 243 0 133 0 255 0 270 -1 28 -2 28 -49 -23 -200 -220
-319 -501 -338 -805 l-6 -90 191 190 c106 105 194 192 197 194 2 2 4 -170 4
-383 l0 -388 -191 191 c-105 105 -193 191 -195 191 -9 0 6 -151 22 -230 46
-224 159 -447 317 -620 l47 -52 1 68 c0 38 0 154 0 259 l-1 190 255 -255 c140
-140 252 -256 250 -259 -3 -2 -116 -4 -252 -4 l-248 1 55 -50 c153 -138 374
-247 593 -292 75 -16 227 -31 227 -23 0 3 -79 84 -175 180 -96 97 -175 178
-175 180 0 2 160 4 355 3 195 0 354 -4 353 -8 -2 -5 -82 -87 -178 -184 l-175
-176 91 5 c200 13 421 79 581 175 87 52 185 125 223 166 l24 27 -264 -2 c-146
-1 -266 1 -268 5 -1 3 119 128 267 276 l269 270 -1 -268 c0 -152 4 -267 9
-267 31 0 189 215 246 335 62 130 73 161 102 275 20 82 26 125 32 230 l5 90
-196 -195 -195 -195 0 389 0 388 191 -191 c105 -105 192 -191 195 -191 5 0 -4
133 -11 171 -32 165 -58 247 -126 384 -48 98 -123 207 -206 300 l-43 47 -1
-33 c0 -19 -1 -134 -1 -257 0 -123 -2 -222 -4 -220 -48 43 -503 503 -500 505
2 2 115 4 252 4 l249 0 -53 49 c-133 124 -390 257 -552 285 -19 3 -53 10 -75
15 -49 10 -195 23 -195 17 0 -3 79 -83 175 -180 96 -96 175 -177 175 -179 0
-2 -162 -4 -360 -4 -198 -1 -359 0 -358 2 2 2 84 84 182 183 l180 181 -72 -2
c-40 -1 -73 -3 -75 -4z m143 -667 c62 -12 89 -21 148 -50 l62 -30 0 -68 0 -69
-45 34 c-77 59 -146 80 -260 81 -94 0 -105 -2 -165 -32 -119 -60 -170 -159
-176 -338 -7 -209 50 -330 186 -394 48 -23 68 -26 155 -26 114 1 183 22 260
81 l45 34 0 -69 0 -68 -67 -31 c-97 -44 -146 -55 -248 -55 -303 0 -486 210
-470 538 9 176 68 299 186 387 90 67 262 100 389 75z m548 -519 c-5 -584 -5
-588 -82 -664 -46 -47 -93 -64 -187 -68 l-59 -3 0 53 0 54 38 0 c59 1 116 32
138 76 18 37 19 69 22 552 l3 512 65 0 65 0 -3 -512z"/>
</g>
</svg>
